# xmcd
#
# Track frame offsets:
#	150
#	12471
#	22632
#	37665
#	48046
#	63214
#	81019
#	90713
#	102075
#	111933
#	124339
#
# Disc length: 1835 seconds
#
# Revision: 0
# Processed by: cddbd v1.5.2PL0 Copyright (c) Steve Scherf et al.
# Submitted via: dBpowerAMP V4.0
#
DISCID=7507290b
DTITLE=Various Artist - Let Me Go Lover
DYEAR=2005
DGENRE=Country
TTITLE0=Vince Smith and Carol Redo - It Only Hurts For A Little While
TTITLE1=Vince Smith and Carol Redo - Near You
TTITLE2=Carol Redo - It's Your Call
TTITLE3=Vince Smith and Carol Redo - No Letter Today
TTITLE4=Vince Smith - For The First Time
TTITLE5=Vince Smith and Carol Redo - Oh! For Your Love
TTITLE6=Vince Smith and Carol Redo - Let Me Go Lover
TTITLE7=Vince Smith - I Meant Every Word He Said
TTITLE8=Vince Smith and Carol Redo - Making Believe
TTITLE9=Carol Redo - I'll Always Love You
TTITLE10=Vince Smith - Shelley
EXTD=
EXTT0=
EXTT1=
EXTT2=
EXTT3=
EXTT4=
EXTT5=
EXTT6=
EXTT7=
EXTT8=
EXTT9=
EXTT10=
PLAYORDER=
